<?xml version="1.0" encoding="UTF-8"?>
<svg width="200px" height="45px" viewBox="0 0 228 47" version="1.1" xmlns="http://www.w3.org/2000/svg" xmlns:xlink="http://www.w3.org/1999/xlink">
    <title>Springct_New_Logo_Website</title>
    <g id="Page-2" stroke="none" stroke-width="1" fill="none" fill-rule="evenodd">
        <g id="01_home" transform="translate(-30.000000, -16.000000)">
            <g id="logo" transform="translate(10.000000, 0.000000)">
                <g id="Springct_New_Logo_Website" transform="translate(20.000000, 16.000000)">
                    <g id="SpringCT-Logo" transform="translate(57.327267, 13.373455)">
                        <path d="M4.50078378,27.6161103 C2.59817762,27.015181 1.1317502,26.2176031 0.101501505,25.2233765 L0.101501505,25.2217353 L2.34412928,21.2616616 L2.34614922,21.2610304 C3.36310003,22.1499681 4.65501388,22.8755019 6.22189076,23.4376317 C7.76822874,23.9967487 9.40015974,24.2821657 11.0444747,24.2810789 C13.0847728,24.2810789 14.6479885,23.9541869 15.734122,23.3004027 C16.8202554,22.6466185 17.4279178,21.7836033 17.5571092,20.7113568 C17.6520459,19.9263614 17.4490429,19.2788474 16.9481002,18.768815 C16.3850032,18.2209881 15.7024597,17.8113064 14.9541763,17.5720062 C14.1254999,17.2842503 12.987732,16.9573582 11.5408726,16.59133 C9.50772845,16.0947637 7.87398346,15.5977346 6.63963763,15.1002426 C5.42546922,14.6192166 4.36859487,13.8107075 3.586639,12.764698 C2.78565242,11.7054969 2.49427745,10.2734083 2.7125141,8.46843216 C2.89450817,6.95396363 3.49560227,5.52035334 4.44813934,4.32896344 C5.42233496,3.08662205 6.78406266,2.09904439 8.53332242,1.36623046 C10.2825822,0.633416523 12.3605856,0.267304129 14.7673328,0.267845653 C16.41054,0.264201462 18.0471898,0.475175357 19.6357439,0.895460417 C21.2066606,1.31425933 22.533292,1.91577778 23.6156381,2.70001578 L23.6156381,2.70165697 L21.5298074,6.66185686 C21.5291075,6.66197006 21.5284273,6.66218262 21.5277875,6.66248809 C20.4190206,5.96099993 19.2166764,5.41973463 17.9564242,5.0547497 C16.7420764,4.69550034 15.4828847,4.5104301 14.216523,4.50507613 C12.2023157,4.50507613 10.6637599,4.84513983 9.60085566,5.52526725 C8.53795143,6.20539466 7.93836874,7.10784067 7.8021076,8.23260528 C7.70742336,9.01760075 7.91126801,9.65859201 8.41364154,10.1555791 C8.98253212,10.6924085 9.66471377,11.0946334 10.4098378,11.3325673 C11.2385143,11.6208282 12.3762822,11.9479307 13.8231415,12.3138747 C15.8063766,12.7851919 17.4212268,13.27553 18.6676922,13.7848891 C19.8836076,14.272528 20.945289,15.0794425 21.7406377,16.1204337 C22.54255,17.1671785 22.8363237,18.5795728 22.6219586,20.3576165 C22.4423367,21.8665975 21.8414557,23.2945102 20.8881008,24.4778959 C19.9157567,25.7077811 18.548348,26.688836 16.7858745,27.4210608 C15.023401,28.1532856 12.9387486,28.519398 10.5319174,28.519398 C8.48695215,28.5304091 6.4525257,28.2259009 4.50040504,27.6166153" id="Fill-1" fill="#15A864"></path>
                        <path d="M38.1490377,14.4735591 C39.4495362,13.5056758 40.2087776,12.1201718 40.4267617,10.3170473 C40.6447459,8.51392267 40.2201818,7.12816622 39.1530693,6.1597779 C38.0860411,5.19113709 36.4089518,4.70681668 34.1218013,4.70681668 L30.7178398,4.70681668 C30.7170714,4.70681668 30.7164334,4.70746562 30.7161986,4.70820538 L29.5464064,14.3961705 C29.4864638,14.7849794 29.6019455,15.1803586 29.861737,15.47578 C30.1215285,15.7712015 30.4989035,15.9362735 30.892185,15.9265204 L32.7673117,15.9265204 C35.0542938,15.9266045 36.8482025,15.4422841 38.1490377,14.4735591 Z M41.1514118,1.47821035 C42.8699518,2.28567755 44.1226032,3.44271896 44.9093661,4.94933458 C45.6961291,6.4559502 45.9644431,8.24518776 45.7143084,10.3170473 C45.4673719,12.3622268 44.7678027,14.1448575 43.6156007,15.6649394 C42.4633987,17.1850212 40.930524,18.3486695 39.0169765,19.1558842 C37.1032608,19.9625939 34.9221567,20.366075 32.4736643,20.3663275 L30.356146,20.3663275 C29.4867739,20.3878075 28.7608059,21.0356059 28.6408463,21.8969298 L27.8414588,28.5176306 C27.8413333,28.5184372 27.840634,28.5190263 27.8398176,28.5190263 L22.5955732,28.5190263 C22.595194,28.5190263 22.5948169,28.5190263 22.5945472,28.5186566 C22.5941775,28.5183869 22.5941775,28.5180098 22.5941775,28.5176306 L26.005847,0.269155732 C26.0058792,0.2687534 26.0060705,0.268380519 26.0063786,0.268119809 C26.0066867,0.267761347 26.0070861,0.267761347 26.0074882,0.267761347 L34.9006108,0.267761347 C37.348514,0.267761347 39.4321564,0.671248137 41.151538,1.47821035 L41.1514118,1.47821035 Z" id="Fill-2" fill="#15A864"></path>
                        <path d="M61.0213414,6.1597779 C59.9540606,5.19113709 58.2770554,4.70681668 55.9903258,4.70681668 L52.5859856,4.70681668 C52.5853543,4.70681668 52.5851018,4.7077004 52.5843444,4.70820538 L51.2249312,15.9657828 C51.2253339,15.9663021 51.2258005,15.9667687 51.2263199,15.9671715 L54.6306602,15.9671715 C56.9173898,15.9671715 58.7121821,15.4762442 60.0150373,14.4943897 C61.3178924,13.5125351 62.0779754,12.1200877 62.2952862,10.3170473 C62.5128496,8.51484848 62.0882013,7.12909202 61.0213414,6.1597779 Z M60.2180403,28.517883 L59.0020421,26.4095806 C56.7841585,22.5645168 55.3939414,20.2766931 50.7047991,20.2852778 C50.7039416,20.2853862 50.7032663,20.2860615 50.7031579,20.286919 L49.7093521,28.5171256 C49.7089172,28.5177067 49.708356,28.5181815 49.7077109,28.5185143 L44.4640977,28.5185143 C44.4636644,28.5180989 44.4632829,28.5176326 44.4629615,28.5171256 L47.8743715,0.269155732 C47.8749671,0.268753319 47.8755173,0.268287714 47.8760127,0.26776703 L56.7691353,0.26776703 C59.217291,0.26776703 61.3009334,0.671248137 63.0200625,1.47821035 C64.7391917,2.28517256 65.9919273,3.44221397 66.7782694,4.94933458 C67.5649481,6.45637102 67.8332622,8.24560858 67.5832117,10.3170473 C67.3265963,12.4430241 66.5876805,14.2726602 65.3664642,15.8059558 C64.145248,17.3392513 62.5211397,18.4824898 60.4941395,19.2356714 C60.4941395,19.2365551 60.4941395,19.2370601 60.4935083,19.2376913 L65.8681645,28.5167468 L65.8667758,28.5188852 L60.2198077,28.5188852 C60.2195343,28.5188852 60.2191974,28.5188852 60.218924,28.5188852 L60.2180403,28.517883 Z" id="Fill-3" fill="#15A864"></path>
                        <path d="M70.6328017,0.26776703 L75.8765411,0.26776703 L75.8779298,0.269155732 L72.4667723,28.5175043 C72.4662885,28.5180372 72.4657367,28.5185041 72.4651311,28.518893 L67.2215179,28.518893 C67.2210846,28.5184776 67.2207031,28.5180113 67.2203817,28.5175043 L70.6315392,0.269155732 L70.6331804,0.26776703" id="Fill-4" fill="#15A864"></path>
                        <path d="M100.55946,0.269155732 L97.1485549,28.5175043 C97.1485228,28.5179066 97.1483314,28.5182795 97.1480233,28.5185402 C97.1477152,28.5188987 97.1473158,28.5188987 97.1469137,28.5188987 L92.8305748,28.5188987 C92.8305748,28.5188987 92.8299436,28.5188987 92.8296911,28.5188987 L83.8552664,12.4466852 C83.3039516,11.6513376 81.9615816,12.109483 81.8376083,13.1349765 L79.9802823,28.5175043 C79.9802823,28.518388 79.9796511,28.5188987 79.9786411,28.5188987 L74.7753003,28.5188987 C74.7744166,28.5188987 74.7740378,28.5188987 74.7740378,28.5175043 L78.1849429,0.269155732 C78.184975,0.2687534 78.1851663,0.268380519 78.1854744,0.268119809 C78.1857826,0.267761347 78.186182,0.267761347 78.1865841,0.267761347 L82.5029229,0.267761347 C82.5029229,0.267761347 82.5036804,0.267761347 82.5038067,0.267761347 L91.4781051,16.3394699 C92.0294199,17.1348175 93.3717899,16.676672 93.4957632,15.6514311 L95.3533417,0.269155732 C95.3533738,0.2687534 95.3535652,0.268380519 95.3538733,0.268119809 C95.3541814,0.267761347 95.3545808,0.267761347 95.3549829,0.267761347 L100.558197,0.267761347 C100.558915,0.267761347 100.55946,0.268435487 100.55946,0.269155732" id="Fill-5" fill="#15A864"></path>
                        <path d="M111.668699,15.4364347 L111.115111,19.3306081 L116.830631,19.3306081 L116.355947,23.2606353 C115.255333,23.6700286 114.090797,23.8808454 112.916511,23.8832789 C107.678326,23.8832789 103.940445,19.6251393 104.572683,14.3931407 C105.204921,9.16114206 109.97019,4.90325492 115.208374,4.90325492 C116.548453,4.89149133 117.872731,5.19311999 119.075531,5.78407084 L122.913399,2.36028873 C120.920864,1.03571934 118.483818,0.267514539 115.768653,0.267514539 C107.967302,0.267514539 100.879493,6.59242175 99.9374476,14.3928882 C98.9954026,22.1933546 104.555892,28.5185143 112.357242,28.5185143 C114.636159,28.5100848 116.883774,27.9873114 118.932495,26.9891744 C119.542027,26.6976673 120.132595,26.3680608 120.700691,26.0023122 L121.828191,16.6649312 L121.827308,16.6649312 L121.975394,15.4361822 L111.668699,15.4361822" id="Fill-11" fill="#15A864"></path>
                        <path d="M156.165873,3.69685146 L149.637079,3.69685146 L149.63569,3.69546275 L150.171477,0.142910079 L150.172865,0.141521377 L169.899632,0.141521377 L169.901021,0.142910079 L169.365235,3.69546275 L169.363846,3.69685146 L162.834673,3.69685146 C162.000603,3.71753762 161.304124,4.33900382 161.188935,5.16534089 L158.491065,28.3912587 C158.49063,28.3918398 158.490069,28.3923146 158.489424,28.3926474 L154.76038,28.3926474 C154.759947,28.3922319 154.759565,28.3917657 154.759244,28.3912587 L157.456861,5.16521465 C157.514217,4.79219712 157.403381,4.41293506 157.154185,4.12950412 C156.904989,3.84607317 156.543037,3.68759586 156.165747,3.69672521" id="Fill-6" fill="#D5D5D5"></path>
                        <g id="Group-10" transform="translate(125.740670, 0.116272)" fill="#D5D5D5">
                            <path d="M18.6509015,22.9768351 L21.2486583,25.5607049 C20.5725196,25.9927349 19.8739474,26.3886079 19.1558842,26.7466565 C17.1071457,27.7448993 14.8594847,28.2677597 12.5805056,28.2762489 C4.77915544,28.2762489 -0.781334346,21.9513417 0.160710716,14.1508752 C1.10275578,6.35040884 8.18993425,0.0252491306 15.9919156,0.0252491306 C18.7070809,0.0252491306 21.1441269,0.793453929 23.1366621,2.11802332 L20.1825138,4.40559455 C19.0463029,3.83610041 17.4808568,3.52477863 16.0628657,3.52477863 C10.0991473,3.52036003 4.52110933,8.14120342 3.8305456,14.1511277 C3.13998188,20.161052 7.52297846,24.7772243 12.7611631,24.7772243 C14.0679006,24.7531199 15.3624674,24.5211223 16.5962535,24.089943 C17.3244586,23.8051437 18.0145929,23.4312627 18.6509015,22.9768351 L18.6509015,22.9768351 Z" id="Fill-7"></path>
                        </g>
                    </g>
                    <g id="New" transform="translate(0.039262, 0.113242)">
                        <g id="leaves_New" transform="translate(0.086983, 0.013003)">
                            <path d="M0,19.836727 C0.52101581,21.041363 1.76554546,23.232735 3.65203425,25.6370835 C4.41746164,26.645155 5.97407055,28.373458 7.3433309,29.6657085 C8.58978394,30.8585936 9.90246274,31.9802966 11.2751255,33.0254841 C12.0380995,33.649038 12.8335503,34.2317618 13.6581385,34.771209 C14.6005623,35.475786 18.4901908,38.691894 19.4072393,39.6064175 C20.3242877,40.520941 22.266577,42.9601333 22.4291814,43.2605979 C23.2895456,44.5988018 24.4205804,44.4880844 25.3280341,43.6720325 C25.5336883,43.4752155 26.1464847,42.8689839 26.886158,42.1214834 C27.6916052,41.3573184 28.8584938,40.2627686 29.921356,39.3358731 C30.6385575,38.721183 31.3276063,38.1167188 31.932323,37.6386265 C32.7806938,36.9678833 33.4463871,36.5178176 33.6449715,36.3929606 C34.357502,35.8896192 36.2923429,34.6296876 37.2212584,33.9942932 C37.8056495,33.614925 41.0788205,31.4264566 42.2950712,30.4873152 C42.8681002,30.0782793 44.034105,29.2050381 45.1338309,28.3382355 C46.0873643,27.5404892 47.0329443,26.7557462 47.4451363,26.3725907 C49.023207,24.9634367 50.8484666,23.1172203 52.173036,21.4164388 C53.2481441,20.0616901 54.247029,18.6481625 55.165058,17.1824121 C57.1190882,14.0893936 58.8694842,10.2986154 59.6933633,7.91333002 C61.264238,3.79494433 61.4277261,0.544623747 61.3820252,-0.000378736959 C60.7187305,0.368763552 58.4865811,1.48515386 55.9799737,2.66959058 C53.8325351,3.67336977 50.6352377,5.053361 50.0125942,5.30118122 C48.9690476,5.75213069 45.7774313,6.999059 44.6730343,7.55315117 C43.8764242,7.93895789 42.8624191,8.39243227 42.3898816,8.66815278 C41.8756831,8.92569391 40.020882,9.97757269 39.8286098,10.1170741 C39.1327438,10.5546416 38.1747918,11.1623881 37.5251317,11.6687595 C37.2500424,11.8722675 36.7560431,12.254918 36.2654525,12.6623128 C35.5560782,13.251375 34.8368567,13.890178 34.6551892,14.0982308 C33.6886525,14.9693258 31.5184897,17.4444981 30.6561057,18.680948 C29.7704924,19.8550326 28.861145,21.1597814 28.0012858,22.5262644 C27.604219,23.1972732 27.252512,23.8941077 26.9485233,24.612095 C26.4132371,25.8327901 25.9623232,27.0887688 25.5989573,28.3711856 C24.7606862,31.0027762 24.0335112,36.5670534 24.0234116,37.6238558 C24.0099966,37.657418 23.9774958,37.6794281 23.9413519,37.6794281 C23.905208,37.6794281 23.8727072,37.657418 23.8592922,37.6238558 C23.8313919,36.8976908 23.4601035,35.0277401 23.0491739,33.2168725 C22.9154543,32.5313523 22.7307918,31.8567601 22.4967229,31.1987095 C22.1963845,30.3002192 21.6345913,28.976786 21.1676086,28.266023 C20.5165598,27.1188287 19.1199041,25.1517952 16.6235226,23.4622496 C15.5492367,22.735023 14.3997995,22.1255339 13.1950694,21.6443122 C11.8092709,21.070652 10.1126555,20.626141 8.81586019,20.3500418 C5.4482574,19.6333452 1.69661533,19.6582156 0,19.836727 Z" id="Path" fill="#11B268"></path>
                            <path d="M49.4337579,10.8135714 C46.5973968,12.5676285 44.0755136,14.5533464 42.2963336,16.0474637 C41.3148999,16.8933096 40.1722505,17.9390023 39.178066,18.9066752 C38.5528975,19.5524218 37.9499483,20.1789789 37.4580952,20.7098419 C36.316077,21.9831556 34.3158409,24.4873643 33.3811181,25.6983126 C32.3400964,27.0639119 30.6842585,29.3057822 29.3364599,31.2239586 C28.6336503,32.2552594 27.7352862,33.4881744 26.9235267,34.7247506 C26.3100991,35.6337193 25.4224659,36.9221824 24.7194038,38.0668517 C24.3195839,38.6059207 23.4983559,38.6425319 23.1196189,38.0289781 C22.5321979,36.9937637 21.2675952,35.2835138 19.9060358,33.7346059 C17.3811228,30.8625173 15.5171057,29.6029644 14.7903095,29.3351974 C15.0210865,29.623795 15.9945668,30.8974874 17.308784,32.5913253 C18.0417663,33.5990181 19.139346,35.0085508 20.0688927,36.3367813 C21.0762068,37.7564137 22.006511,39.1802122 22.848317,40.3607353 C23.3305754,41.0186014 24.0447471,41.7382016 25.1081142,40.7226816 C26.0223852,39.767002 27.3679114,37.6150186 28.3545212,36.2085157 C29.4199082,34.6765247 30.8506502,32.6062223 31.9645156,31.0624904 C32.5186078,30.2643654 33.2937561,29.1963272 34.0201736,28.192043 C34.5347509,27.480775 35.0057734,26.8104106 35.4410684,26.2516473 C35.9129747,25.6499605 36.4107613,24.9437424 36.9076642,24.3460954 C37.6507461,23.4522762 38.3440872,22.6239785 39.0987837,21.7985844 C40.179699,20.5671843 41.3787802,19.3064952 42.343297,18.2589088 C43.4273684,17.1128508 44.5435062,15.9197031 45.5650861,14.8520436 C47.3577743,12.9788106 48.8641375,11.4372249 49.4337579,10.8135714 Z" id="Path-2" fill="#FFFFFF"></path>
                        </g>
                    </g>
                </g>
            </g>
        </g>
    </g>
</svg>
